<svg xmlns="http://www.w3.org/2000/svg" width="216.151" height="120" viewBox="0 0 216.151 102.74"><g id="Livello_2" data-name="Livello 2" transform="translate(0 -0.003)"><g id="Livello_1" data-name="Livello 1" transform="translate(0 0.003)"><g id="Group_2" data-name="Group 2" transform="translate(0 0)"><path id="Path_1" data-name="Path 1" d="M225.887,237.713a3.777,3.777,0,0,1-.809,2.887c-.826.927-2.3,1.414-4.612,1.533-1.67.085-3.6-.867-4.128-2.034a1.917,1.917,0,0,1,.6-2.2,3.345,3.345,0,0,1,2.826-1.013,1.394,1.394,0,0,1,.625.974c0,.036,0,.094-.215.129a.462.462,0,1,0,.154.911,1.057,1.057,0,0,0,.982-.963,2.245,2.245,0,0,0-1.238-1.926c-1.274-.446-3.027.438-3.8,1.247a2.824,2.824,0,0,0-.773,3.225c.782,1.706,3.217,2.661,5.025,2.567a13.545,13.545,0,0,0,2.2-.275L224.052,248c-3.853,1.519-7.925.7-11.076-.2-2.237-.636-3.853-3.877-4.037-5.061a9.237,9.237,0,0,1,1.626-7.127c1.879-3.027,3.836-4.089,7.757-4.238C221.762,231.273,225.637,233.643,225.887,237.713Z" transform="translate(-151.338 -167.708)" fill="#f3953f"></path><path id="Path_2" data-name="Path 2" d="M511.6,45.154c3.891.19,6.208,4.287,6.266,7.749,1.83-1.277,2.2-3.577,4.32-4.717,2.174-1.175,5.1-1.635,7.493-2.306,1.869-.523,3.82-.726,5.721-1.1-3.121,4.879-6.585,13.484-13.021,14.772-1.516.3-2.9.231-3.913-.842-.371-.394-.5-.806-.977-1.1-2.826,2.023,1.059,7.755,2.752,9.419-.762.886-1.965.55-1.651.87a10.244,10.244,0,0,0-2.314-4.662,8.532,8.532,0,0,1-1.04-2.1c-.275-.746.275-2.339.217-3.1a26.1,26.1,0,0,0-2.774,2.43,11.054,11.054,0,0,1-3.853,2.477c-2.116.826-6.434,2.146-8.613,1.211.336-2.347,1.469-4.463,2.342-6.635.517-1.288.914-2.788,2.248-3.409,2.625-1.225,6.541.275,8.935,1.051-.239-1.791-2.378-3.027-3.052-4.651a5.273,5.273,0,0,1-.586-2.639c.182-1.065,1.117-1.558,1.431-2.452Z" transform="translate(-362.562 -32.458)" fill="#00853e"></path><path id="Path_3" data-name="Path 3" d="M172.773,22.476c-1.714-1.043-5.754-1.42-7.9-1.681a25.116,25.116,0,0,0-9.208.377c-3.027.669-4.755,2.84-6.58,5.242-1.447-1.739-2.4-2.722-2.953-5.1-.487-2.086-.517-2.2-2.782-2.752a23.815,23.815,0,0,0-4.194-.605,6.812,6.812,0,0,0,3.264,4.989c2.229,1.175,2.6,2.122,3.88,4.086-3.924-.143-7.113-2.039-10.985-2.32-6.53-.473-15.889,1.183-21.062,5.27,1.687,2.086,6.436,2.988,8.916,3.487,1.99.4,3.908.919,5.936,1.139,3.349.366,6.772.883,10.041.446,2.281-.3,3.875-.256,5.74-1.461,1.926-1.249,2.13-.671,4.557-.245-.663,1.291.768,2.606.669,4.108a21.7,21.7,0,0,0-.017,5.881c2.658.652,6.425-1.7,8.943-2.518a19.571,19.571,0,0,1,5.4-1.175c-.275-1.827-3.577-4.774-5.319-5.38-1.525-.531-3.456-.292-4.711-1.359,4.428-.655,10.8-.963,14.175-4.155a28.592,28.592,0,0,0,4.678-6.376" transform="translate(-82.811 -13.019)" fill="#00853e"></path><path id="Path_4" data-name="Path 4" d="M408.537,227.112c-1.161,1.12-9.042,3.528-11.1,3.938-6.186,1.23-13.041.938-19.02-2.155-3.773-1.951-7.43-5.941-11.368-6.948-4.576-1.172-9.194,6.216-13.825,5.534.44-2.636,3.685-7.815,3.825-9.447.116-1.348.248-2.933.234-4.29-.017-1.706-.5-3.236-.3-4.984,4.367,5.7,5.707,8.374,11.494,9.884,3.974,1.04,7.383.259,11.464-.911,3.244-.93,6.293-2.433,9.535-2.2,1.67.118,5.969,1.533,9.463,3.181a15.156,15.156,0,0,1,3.935,2.925C404.954,223.686,408.537,227.112,408.537,227.112Z" transform="translate(-256.021 -151.314)" fill="#00a3a6"></path><path id="Path_5" data-name="Path 5" d="M375.663,21.246c3.8-2.658,8.055-8.883,6.687-13.7C380.575,1.3,375.608-.273,369.892.041,365.2.3,360.451,1.062,357.234,4.834,353.67,9,356.152,15.665,359.08,19.708c2.691,3.712,5.663,3.3,9.518,2.581,2-.377,5.242.308,6.566-.969" transform="translate(-257.654 -0.003)" fill="#e84e0f"></path><path id="Path_6" data-name="Path 6" d="M305.9,215.383c-3.875,2.7-3.932,10.457-2.529,14.524,1.258,3.654,6.946,17.2,8.869,8.762.944-4.128-.963-11.4-2.276-15.3-.982-2.914-3.822-5.5-4.458-8.775" transform="translate(-219.282 -155.54)" fill="#194383"></path><g id="Group_1" data-name="Group 1" transform="translate(0 25.252)"><path id="Path_7" data-name="Path 7" d="M28.542,128.784l-.748,10.589H0v-1.8q.594-.05,1.72-.176a5.917,5.917,0,0,0,1.582-.314,2.144,2.144,0,0,0,1.076-.955,3.4,3.4,0,0,0,.336-1.607V109a3.742,3.742,0,0,0-.275-1.508A2.166,2.166,0,0,0,3.3,106.434a8.255,8.255,0,0,0-1.6-.589A9.023,9.023,0,0,0,0,105.5V103.71H15.044V105.5a11.764,11.764,0,0,0-1.83.253,13.8,13.8,0,0,0-1.632.4,1.893,1.893,0,0,0-1.175,1.029,3.853,3.853,0,0,0-.316,1.558v23.941a15.41,15.41,0,0,0,.165,2.576,2.3,2.3,0,0,0,.751,1.4,3.442,3.442,0,0,0,1.717.592,28.51,28.51,0,0,0,3.192.138q.925,0,1.926-.05a16.9,16.9,0,0,0,1.9-.2,10.183,10.183,0,0,0,1.615-.413,2.573,2.573,0,0,0,1.1-.663,22.719,22.719,0,0,0,2.391-3.489,25.189,25.189,0,0,0,1.89-3.792Z" transform="translate(0 -100.424)" fill="#194383"></path><path id="Path_8" data-name="Path 8" d="M119.98,133.005H107.968v-1.673l1.2-.1a4.679,4.679,0,0,0,1.07-.2,1.805,1.805,0,0,0,1.046-.79,2.815,2.815,0,0,0,.341-1.467V113.514a3,3,0,0,0-.363-1.464,3.242,3.242,0,0,0-1.013-1.117,4.631,4.631,0,0,0-1.376-.512,9.978,9.978,0,0,0-1.651-.275v-1.67l8.751-.55.352.352v20.19a2.843,2.843,0,0,0,.336,1.456,1.992,1.992,0,0,0,1.065.853,8.149,8.149,0,0,0,1.076.366,6.736,6.736,0,0,0,1.175.187Zm-3.156-34.852a3.69,3.69,0,0,1-.944,2.512,2.988,2.988,0,0,1-2.328,1.07,2.944,2.944,0,0,1-2.226-1.021,3.349,3.349,0,0,1-.941-2.334,3.487,3.487,0,0,1,.941-2.422,2.931,2.931,0,0,1,2.226-1.035,3.1,3.1,0,0,1,2.353.971A3.2,3.2,0,0,1,116.824,98.154Z" transform="translate(-77.715 -94.056)" fill="#e84e0f"></path><path id="Path_9" data-name="Path 9" d="M177.839,94.786a3,3,0,0,1-.605,1.9,2.166,2.166,0,0,1-1.835.779,2.807,2.807,0,0,1-1.376-.325,4.238,4.238,0,0,1-1.1-.881,8.256,8.256,0,0,1-.933-1.255c-.275-.468-.528-.848-.729-1.131q-1.69.074-2.606,2.35a20.873,20.873,0,0,0-.914,7.248v2.537h6.384v2.416H167.74v17.8a2.716,2.716,0,0,0,.338,1.434,2.067,2.067,0,0,0,1.073.826,7.766,7.766,0,0,0,1.615.366q1.007.135,1.739.187v1.673H159.38v-1.673l1.2-.1a4.513,4.513,0,0,0,1.07-.2,1.794,1.794,0,0,0,1.046-.79,2.837,2.837,0,0,0,.341-1.472V108.427H158.15v-2.416h4.893v-1.582a13.782,13.782,0,0,1,2.936-9.155,9.188,9.188,0,0,1,7.347-3.5,5.462,5.462,0,0,1,3.379.878A2.622,2.622,0,0,1,177.839,94.786Z" transform="translate(-114.63 -91.77)" fill="#194383"></path><path id="Path_10" data-name="Path 10" d="M239.435,160.3a12.7,12.7,0,0,1-4.191,4.719,10.592,10.592,0,0,1-6.029,1.756,12.29,12.29,0,0,1-5.261-1.057,10.319,10.319,0,0,1-3.723-2.873,12.226,12.226,0,0,1-2.182-4.23,17.868,17.868,0,0,1-.718-5.113,15.012,15.012,0,0,1,.77-4.746,13.321,13.321,0,0,1,2.257-4.192,10.87,10.87,0,0,1,3.577-2.884,10.308,10.308,0,0,1,4.78-1.1,11.528,11.528,0,0,1,4.664.853,8.319,8.319,0,0,1,3.154,2.339,9.356,9.356,0,0,1,1.725,3.319,14.477,14.477,0,0,1,.57,4.15v1.651H222.346a19.645,19.645,0,0,0,.465,4.458,10.707,10.707,0,0,0,1.48,3.52,7.036,7.036,0,0,0,2.578,2.334,7.98,7.98,0,0,0,3.795.848A7.028,7.028,0,0,0,234.547,163a10.388,10.388,0,0,0,3.151-3.781Zm-5.636-9.5a20.449,20.449,0,0,0-.239-3.008,9.125,9.125,0,0,0-.765-2.68,5.091,5.091,0,0,0-1.582-1.879,4.3,4.3,0,0,0-2.587-.729,5.369,5.369,0,0,0-4.384,2.2,10.281,10.281,0,0,0-1.9,6.1Z" transform="translate(-157.524 -127.145)" fill="#00853e"></path><path id="Path_11" data-name="Path 11" d="M337.932,105.511a5.658,5.658,0,0,0-1.461.275,7.113,7.113,0,0,0-1.533.691,5.209,5.209,0,0,0-1.423,1.269,6.585,6.585,0,0,0-.944,2q-1.789,5.8-4.152,13.547t-5.11,16.511h-2.325l-9.02-27.471L302.607,139.8h-2.223q-2.493-8.786-5.16-18.242T291.647,108.9a4.469,4.469,0,0,0-.666-1.376,4.678,4.678,0,0,0-1.2-1.1,4.623,4.623,0,0,0-1.472-.638,8.8,8.8,0,0,0-1.522-.275V103.72h14.56v1.794a22.566,22.566,0,0,0-3.258.377q-1.337.272-1.337.933a3.758,3.758,0,0,0,.077.666c.05.275.091.5.124.663q.578,2.2,2.053,7.314t4.351,15.275l8.9-26.53h2.463l9,27.064q1.816-6.238,3.129-10.9t2.171-7.98q.608-2.336.757-3.2a8.679,8.679,0,0,0,.151-1.469q0-.856-1.17-1.431a11.142,11.142,0,0,0-3.786-.779V103.72h12.958Z" transform="translate(-207.871 -100.432)" fill="#194383"></path><path id="Path_12" data-name="Path 12" d="M484.219,165.633q-1.18.421-2.072.685a7.218,7.218,0,0,1-2.02.275,4.914,4.914,0,0,1-3.126-.919,4.268,4.268,0,0,1-1.494-2.7h-.157a12.243,12.243,0,0,1-3.478,2.766,9.717,9.717,0,0,1-4.477.955,6.308,6.308,0,0,1-4.554-1.712,5.921,5.921,0,0,1-1.783-4.474,7.589,7.589,0,0,1,.4-2.565,6.073,6.073,0,0,1,1.2-2.036,5.987,5.987,0,0,1,1.651-1.346,14.611,14.611,0,0,1,1.926-.944q1.128-.424,4.56-1.582a34.611,34.611,0,0,0,4.634-1.811v-2.477a10.589,10.589,0,0,0-.138-1.244,5.229,5.229,0,0,0-.583-1.742,4.978,4.978,0,0,0-1.406-1.6,4.227,4.227,0,0,0-2.578-.685,5.812,5.812,0,0,0-2.13.385,3.853,3.853,0,0,0-1.376.806,6.689,6.689,0,0,0,.239,1.464,7.471,7.471,0,0,1,.239,1.786,2.124,2.124,0,0,1-.8,1.588,3.171,3.171,0,0,1-2.2.721,2.065,2.065,0,0,1-1.855-.894,3.531,3.531,0,0,1-.592-2,3.577,3.577,0,0,1,.812-2.2,8.193,8.193,0,0,1,2.116-1.885,11.558,11.558,0,0,1,2.727-1.192,10.638,10.638,0,0,1,3.129-.49,20.414,20.414,0,0,1,3.665.275,6.719,6.719,0,0,1,2.843,1.247,5.806,5.806,0,0,1,1.926,2.532,10.891,10.891,0,0,1,.663,4.128q0,3.6-.061,6.384t-.063,6.079a3.132,3.132,0,0,0,.336,1.563,2.769,2.769,0,0,0,1.035.982,2.551,2.551,0,0,0,1.183.25q.809.025,1.651.025Zm-8.74-13.294q-2.127.63-3.726,1.236a15.048,15.048,0,0,0-2.975,1.516,6.821,6.821,0,0,0-1.976,2.031,5.2,5.2,0,0,0-.724,2.79,3.6,3.6,0,0,0,3.836,4.067,5.619,5.619,0,0,0,3.118-.872,9.062,9.062,0,0,0,2.267-2.058Z" transform="translate(-334.183 -127.135)" fill="#e84e0f"></path><path id="Path_13" data-name="Path 13" d="M558.567,146.819q-1.626.671-3.076,1.131a11.927,11.927,0,0,1-3.553.46q-3.1,0-4.367-1.574a6.941,6.941,0,0,1-1.263-4.447V125.564H541.85v-2.416h4.56V115.41h4.563v7.738h7.047v2.416h-7.006V139.5a24.647,24.647,0,0,0,.113,2.617,4.895,4.895,0,0,0,.55,1.833,2.57,2.57,0,0,0,1.2,1.1,5.078,5.078,0,0,0,2.152.38c.416,0,1.029-.041,1.835-.121a7.6,7.6,0,0,0,1.7-.289Z" transform="translate(-392.744 -108.905)" fill="#00853e"></path><path id="Path_14" data-name="Path 14" d="M617.268,166.791a10.531,10.531,0,0,1-8.462-3.577q-3.054-3.577-3.057-9.6a14.346,14.346,0,0,1,.826-4.9,13.468,13.468,0,0,1,2.389-4.141,11.249,11.249,0,0,1,8.646-3.979,9.586,9.586,0,0,1,5.966,1.75,5.673,5.673,0,0,1,2.3,4.772,4.128,4.128,0,0,1-.6,2.229,2.148,2.148,0,0,1-1.984.969,3.267,3.267,0,0,1-2.295-.751,2.254,2.254,0,0,1-.826-1.681,9.438,9.438,0,0,1,.3-2.32,12.718,12.718,0,0,0,.352-1.745,2.248,2.248,0,0,0-1.359-1.04,6.86,6.86,0,0,0-1.94-.275,5.432,5.432,0,0,0-2.325.517,5.975,5.975,0,0,0-2.146,1.9,10.183,10.183,0,0,0-1.522,3.4,19.567,19.567,0,0,0-.586,5.116,13.009,13.009,0,0,0,2.086,7.647,6.377,6.377,0,0,0,5.468,2.961,6.841,6.841,0,0,0,4.106-1.192,11.655,11.655,0,0,0,3.071-3.577l1.615,1.054a13,13,0,0,1-4.4,4.7,10.366,10.366,0,0,1-5.616,1.75Z" transform="translate(-439.059 -127.163)" fill="#e84e0f"></path><path id="Path_15" data-name="Path 15" d="M710.145,130.748h-12.2v-1.673q.578-.05,1.288-.1a4.785,4.785,0,0,0,1.161-.2,1.811,1.811,0,0,0,1.046-.793,2.821,2.821,0,0,0,.344-1.475V113.728a6.038,6.038,0,0,0-1.247-4.081,3.852,3.852,0,0,0-3.027-1.436,6.9,6.9,0,0,0-2.427.416,9.081,9.081,0,0,0-2,1.021,5.924,5.924,0,0,0-1.307,1.258q-.454.633-.7,1.059v14.3a2.639,2.639,0,0,0,.341,1.409,2.185,2.185,0,0,0,1.048.859,5.442,5.442,0,0,0,1.147.377,9.307,9.307,0,0,0,1.3.176v1.673h-12.2V129.08c.383-.033.782-.072,1.2-.113a5.663,5.663,0,0,0,1.051-.19,1.852,1.852,0,0,0,1.051-.79,2.751,2.751,0,0,0,.349-1.469V97.674a4.1,4.1,0,0,0-.388-1.709,3.044,3.044,0,0,0-1.013-1.282,3.6,3.6,0,0,0-1.591-.462c-.765-.091-1.376-.157-1.838-.19V92.36l9.183-.55.352.377v17.287h.1c.55-.55,1.054-1.046,1.505-1.472a11.863,11.863,0,0,1,1.783-1.348,9.506,9.506,0,0,1,2.245-1.007,9.711,9.711,0,0,1,2.9-.4,6.341,6.341,0,0,1,5.1,2.1,9.014,9.014,0,0,1,1.783,6.054v12.914a2.788,2.788,0,0,0,.316,1.423,2.075,2.075,0,0,0,1.051.842,8.687,8.687,0,0,0,1.054.341,7.632,7.632,0,0,0,1.23.162Z" transform="translate(-493.994 -91.799)" fill="#194383"></path></g></g><g id="Group_3" data-name="Group 3" transform="translate(79.054 91.092)"><path id="Path_16" data-name="Path 16" d="M287.28,331.374a17.291,17.291,0,0,1,3.027-.237,5.385,5.385,0,0,1,3.253.726,2.391,2.391,0,0,1,1.178,2.122,2.641,2.641,0,0,1-1.885,2.457v.036a2.86,2.86,0,0,1,2.29,2.812,2.936,2.936,0,0,1-1.1,2.339c-.809.707-2.138,1.062-4.21,1.062a20.36,20.36,0,0,1-2.543-.151Zm2.056,4.48H290.4c1.431,0,2.24-.674,2.24-1.635,0-1.059-.809-1.549-2.122-1.549a5.663,5.663,0,0,0-1.178.085Zm0,5.228a8.612,8.612,0,0,0,1.1.052c1.332,0,2.51-.506,2.51-1.9,0-1.313-1.145-1.852-2.576-1.852h-1.026Z" transform="translate(-287.28 -331.108)" fill="#224383"></path><path id="Path_17" data-name="Path 17" d="M328.878,337.785H324.6v3.335h4.783v1.7H322.53V331.47h6.6v1.7H324.6V336.1h4.276Z" transform="translate(-312.83 -331.349)" fill="#224383"></path><path id="Path_18" data-name="Path 18" d="M354.05,331.47h2.072v9.618h4.664v1.734H354.05Z" transform="translate(-335.676 -331.349)" fill="#224383"></path><path id="Path_19" data-name="Path 19" d="M389.373,341.98a11.225,11.225,0,0,1-3.654.641,6.112,6.112,0,0,1-4.447-1.516,5.626,5.626,0,0,1-1.582-4.177c0-3.577,2.559-5.894,6.315-5.894a7.531,7.531,0,0,1,3.027.55l-.451,1.657a6.117,6.117,0,0,0-2.578-.49,3.8,3.8,0,0,0-4.128,4.078,3.751,3.751,0,0,0,3.941,4.108,3.962,3.962,0,0,0,1.566-.237v-2.829h-2v-1.621h4.007Z" transform="translate(-354.26 -331.031)" fill="#224383"></path><path id="Path_20" data-name="Path 20" d="M424.662,331.47v11.351H422.59V331.47Z" transform="translate(-385.355 -331.349)" fill="#224383"></path><path id="Path_21" data-name="Path 21" d="M440.759,331.47v6.6c0,2.223.927,3.253,2.325,3.253,1.5,0,2.391-1.029,2.391-3.253v-6.6h2.072v6.475c0,3.5-1.8,5.052-4.529,5.052-2.628,0-4.329-1.464-4.329-5.036V331.47Z" transform="translate(-397.025 -331.349)" fill="#224383"></path><path id="Path_22" data-name="Path 22" d="M488.4,338.212c-.069-1.464-.151-3.233-.135-4.766h-.05c-.371,1.376-.842,2.914-1.348,4.345l-1.651,4.917h-1.585l-1.516-4.851c-.438-1.447-.842-3-1.145-4.4h-.033c-.052,1.483-.118,3.283-.2,4.835l-.253,4.563H478.55l.76-11.351h2.727l1.483,4.565c.4,1.329.757,2.677,1.043,3.941h.052c.3-1.23.691-2.628,1.128-3.957l1.566-4.549H490l.658,11.351h-2.02Z" transform="translate(-425.916 -331.371)" fill="#224383"></path></g></g></g></svg>
